<?xml version="1.0" standalone="no"?>
<!DOCTYPE svg PUBLIC "-//W3C//DTD SVG 20010904//EN"
 "http://www.w3.org/TR/2001/REC-SVG-20010904/DTD/svg10.dtd">
<svg version="1.0" xmlns="http://www.w3.org/2000/svg"
 width="1280.000000pt" height="1033.000000pt" viewBox="0 0 1280.000000 1033.000000"
 preserveAspectRatio="xMidYMid meet">
<metadata>
Created by potrace 1.15, written by Peter Selinger 2001-2017
</metadata>
<g transform="translate(0.000000,1033.000000) scale(0.100000,-0.100000)"
fill="#000000" stroke="none">
<path d="M6270 10314 c-99 -21 -202 -77 -274 -148 -136 -133 -169 -304 -92
-473 54 -116 214 -235 357 -265 70 -14 66 25 39 -328 -168 -2211 -409 -4110
-741 -5825 -54 -278 -138 -677 -143 -683 -13 -13 -295 531 -419 808 -414 926
-826 2123 -1285 3735 -125 438 -372 1340 -372 1359 0 2 26 10 58 16 253 51
435 289 393 513 -24 130 -119 252 -248 320 -97 51 -170 68 -288 68 -157 0
-259 -37 -384 -141 -74 -61 -113 -117 -141 -201 -65 -191 45 -405 264 -513 73
-36 181 -65 244 -66 19 0 32 -5 32 -12 0 -7 11 -96 25 -198 202 -1476 320
-2652 375 -3740 18 -355 24 -1052 11 -1355 -18 -428 -55 -797 -76 -773 -7 7
-115 164 -240 348 -283 415 -661 964 -1695 2465 -444 644 -814 1182 -824 1197
l-17 26 59 40 c208 142 262 390 127 590 -62 91 -187 175 -311 207 -74 19 -233
19 -307 0 -162 -42 -325 -178 -370 -310 -87 -249 93 -508 395 -569 98 -20 167
-20 268 0 45 9 82 15 84 13 2 -2 80 -141 173 -309 1198 -2150 1941 -3845 2283
-5210 23 -91 57 -215 75 -275 70 -233 108 -504 82 -597 l-7 -28 2991 0 c2843
0 2991 1 2984 17 -23 61 -30 135 -29 313 1 300 25 470 110 785 320 1186 1135
2880 2447 5088 113 191 132 218 151 214 148 -35 176 -39 261 -34 305 18 539
261 495 515 -24 138 -110 254 -237 320 -100 51 -187 72 -299 72 -410 0 -675
-368 -478 -665 18 -27 62 -75 98 -105 36 -30 66 -57 66 -60 0 -3 -98 -131
-217 -285 -1217 -1572 -2064 -2752 -2594 -3618 l-127 -207 -11 48 c-112 522
-134 1274 -65 2157 61 785 197 1698 412 2775 l57 285 115 6 c163 9 243 42 337
141 167 177 158 419 -21 585 -75 70 -146 103 -248 116 -170 23 -309 -23 -416
-137 -73 -78 -103 -148 -110 -258 -9 -147 59 -288 177 -365 l59 -38 -143 -425
c-716 -2141 -1339 -3641 -1843 -4444 -48 -77 -91 -140 -96 -140 -11 -1 -28 67
-95 379 -207 955 -405 2545 -571 4575 -58 713 -130 1695 -130 1771 l0 39 48 0
c156 1 357 118 437 255 71 120 71 270 1 389 -36 62 -157 169 -232 206 -116 57
-260 73 -394 44z"/>
</g>
</svg>
